<svg xmlns="http://www.w3.org/2000/svg" viewBox="0 0 109.5 124.5">
  <path fill="#95bf47" d="M74.7 14.8c-.1-.6-.6-1-1.1-1-.5 0-9.3-.2-9.3-.2s-6.2-6-6.8-6.7c-.7-.7-2-.5-2.5-.3-.1 0-1.3.4-3.5 1.1-2.1-6-5.8-11.5-12.3-11.5h-.6c-1.9-2.4-4.2-3.5-6.1-3.5-15.1 0-22.4 18.9-24.7 28.5-5.9 1.8-10.1 3.1-10.6 3.3-3.3 1-3.4 1.1-3.8 4.2C3 31.8 0 54.8 0 54.8l56.4 10.6V14.6s-1.1.1-1.7.2z"/>
  <path fill="#5e8e3e" d="M73.6 13.8c-.5 0-9.3-.2-9.3-.2s-6.2-6-6.8-6.7c-.3-.3-.6-.4-.9-.4v59.1l36.9-9.2s-16-95.8-16.2-97c-.3-.7-1.4-.6-3.7-.6z"/>
  <path fill="#fff" d="M49 30.3l-4.4 13.1s-3.9-2.1-8.6-2.1c-7 0-7.3 4.4-7.3 5.5 0 6 15.6 8.3 15.6 22.4 0 11.1-7 18.2-16.5 18.2-11.4 0-17.2-7.1-17.2-7.1l3.1-10.1s6 5.1 11.1 5.1c3.3 0 4.7-2.6 4.7-4.5 0-7.9-12.8-8.2-12.8-21.1 0-10.8 7.8-21.4 23.4-21.4 6 0 8.9 2 8.9 2z"/>
</svg>
